<?xml version="1.0" encoding="UTF-8" standalone="no"?>
<svg width="64px" height="44px" viewBox="0 0 64 44" version="1.1" xmlns="http://www.w3.org/2000/svg" xmlns:xlink="http://www.w3.org/1999/xlink" xmlns:sketch="http://www.bohemiancoding.com/sketch/ns">
    <!-- Generator: Sketch 3.5.1 (25234) - http://www.bohemiancoding.com/sketch -->
    <title>Cassette Tape</title>
    <desc>Created with Sketch.</desc>
    <defs></defs>
    <g id="Page-1" stroke="none" stroke-width="1" fill="none" fill-rule="evenodd" sketch:type="MSPage">
        <g id="Cassette-Tape" sketch:type="MSArtboardGroup" transform="translate(0.000000, -10.000000)" fill="#000000">
            <path d="M5,50 C5.552,50 6,49.552 6,49 C6,48.448 5.552,48 5,48 C4.448,48 4,48.448 4,49 C4,49.552 4.448,50 5,50 L5,50 Z M5,14 C4.448,14 4,14.448 4,15 C4,15.552 4.448,16 5,16 C5.552,16 6,15.552 6,15 C6,14.448 5.552,14 5,14 L5,14 Z M59,50 C59.552,50 60,49.552 60,49 C60,48.448 59.552,48 59,48 C58.448,48 58,48.448 58,49 C58,49.552 58.448,50 59,50 L59,50 Z M59,14 C58.448,14 58,14.448 58,15 C58,15.552 58.448,16 59,16 C59.552,16 60,15.552 60,15 C60,14.448 59.552,14 59,14 L59,14 Z M46,32 C44.346,32 43,30.654 43,29 C43,27.346 44.346,26 46,26 C47.654,26 49,27.346 49,29 C49,30.654 47.654,32 46,32 L46,32 Z M20.62,32 C21.459,31.267 22,30.202 22,29 C22,27.798 21.459,26.733 20.62,26 L43.38,26 C42.541,26.733 42,27.798 42,29 C42,30.202 42.541,31.267 43.38,32 L20.62,32 Z M18,32 C16.346,32 15,30.654 15,29 C15,27.346 16.346,26 18,26 C19.654,26 21,27.346 21,29 C21,30.654 19.654,32 18,32 L18,32 Z M46,24 L18,24 C15.25,24 13,26.25 13,29 C13,31.75 15.25,34 18,34 L46,34 C48.75,34 51,31.75 51,29 C51,26.25 48.75,24 46,24 L46,24 Z M62,40 L2,40 L2,15 C2,13.346 3.346,12 5,12 L59,12 C60.654,12 62,13.346 62,15 L62,40 Z M62,49 C62,50.654 60.654,52 59,52 L53.7,52 L51,43 L13,43 L10.3,52 L5,52 C3.346,52 2,50.654 2,49 L2,41 L62,41 L62,49 Z M11.344,52 L13.744,44 L50.256,44 L52.656,52 L11.344,52 Z M59,10 L5,10 C2.25,10 0,12.25 0,15 L0,40 L0,41 L0,49 C0,51.75 2.25,54 5,54 L59,54 C61.75,54 64,51.75 64,49 L64,15 C64,12.25 61.75,10 59,10 L59,10 Z" sketch:type="MSShapeGroup"></path>
        </g>
    </g>
</svg>