<?xml version="1.0" encoding="UTF-8" standalone="no"?>
<svg width="64px" height="64px" viewBox="0 0 64 64" version="1.1" xmlns="http://www.w3.org/2000/svg" xmlns:xlink="http://www.w3.org/1999/xlink" xmlns:sketch="http://www.bohemiancoding.com/sketch/ns">
    <!-- Generator: Sketch 3.5.1 (25234) - http://www.bohemiancoding.com/sketch -->
    <title>CD</title>
    <desc>Created with Sketch.</desc>
    <defs></defs>
    <g id="Page-1" stroke="none" stroke-width="1" fill="none" fill-rule="evenodd" sketch:type="MSPage">
        <g id="CD" sketch:type="MSArtboardGroup" fill="#000000">
            <path d="M41.6593,34.5882 C40.4893,38.9542 36.5203,42.0032 32.0073,42.0032 C31.1363,42.0032 30.2633,41.8872 29.4123,41.6592 C24.0853,40.2322 20.9133,34.7382 22.3403,29.4122 C23.5103,25.0462 27.4793,21.9972 31.9933,21.9972 C32.8643,21.9972 33.7373,22.1122 34.5883,22.3412 C39.9143,23.7682 43.0863,29.2622 41.6593,34.5882 M56.6073,17.7502 C56.4683,17.5112 56.1623,17.4282 55.9243,17.5672 L42.1023,25.5482 C41.1753,24.0962 39.9463,22.8352 38.4593,21.8862 L46.4333,8.0762 C46.5713,7.8372 46.4893,7.5312 46.2503,7.3932 C46.0113,7.2542 45.7053,7.3372 45.5673,7.5762 L37.5913,21.3902 C36.8153,20.9822 35.9883,20.6452 35.1063,20.4092 C34.0653,20.1302 33.0203,19.9972 31.9923,19.9972 C26.6943,19.9972 21.8453,23.5332 20.4093,28.8942 C19.5943,31.9342 20.0353,35.0082 21.3953,37.5882 L7.5763,45.5672 C7.3373,45.7052 7.2553,46.0112 7.3933,46.2502 C7.4863,46.4102 7.6543,46.5002 7.8263,46.5002 C7.9113,46.5002 7.9973,46.4782 8.0763,46.4322 L21.8983,38.4522 C22.8243,39.9032 24.0533,41.1642 25.5403,42.1132 L17.5673,55.9242 C17.4283,56.1632 17.5103,56.4692 17.7503,56.6062 C17.8283,56.6522 17.9143,56.6742 17.9993,56.6742 C18.1723,56.6742 18.3403,56.5842 18.4333,56.4242 L26.4083,42.6102 C27.1843,43.0182 28.0113,43.3542 28.8943,43.5912 C29.9343,43.8702 30.9793,44.0032 32.0073,44.0032 C37.3053,44.0032 42.1543,40.4672 43.5913,35.1062 C44.4053,32.0662 43.9653,28.9922 42.6043,26.4112 L56.4243,18.4322 C56.6633,18.2952 56.7453,17.9892 56.6073,17.7502 M34.8973,32.7762 C34.5473,34.0862 33.3563,35.0012 32.0023,35.0012 C31.7413,35.0012 31.4793,34.9662 31.2233,34.8982 C30.4493,34.6902 29.8023,34.1942 29.4023,33.5002 C29.0013,32.8062 28.8953,31.9972 29.1023,31.2232 C29.4533,29.9142 30.6433,28.9992 31.9973,28.9992 C32.2593,28.9992 32.5213,29.0342 32.7763,29.1022 C33.5503,29.3092 34.1973,29.8062 34.5983,30.5002 C34.9983,31.1942 35.1053,32.0022 34.8973,32.7762 M33.0353,28.1362 C32.6883,28.0432 32.3403,27.9992 31.9973,27.9992 C30.2313,27.9992 28.6153,29.1772 28.1363,30.9652 C27.5643,33.0982 28.8313,35.2922 30.9643,35.8642 C31.3113,35.9562 31.6593,36.0012 32.0023,36.0012 C33.7683,36.0012 35.3853,34.8222 35.8633,33.0352 C36.4353,30.9012 35.1693,28.7082 33.0353,28.1362 M32.0003,62.0002 C15.4583,62.0002 2.0003,48.5422 2.0003,32.0002 C2.0003,15.4582 15.4583,2.0002 32.0003,2.0002 C48.5423,2.0002 62.0003,15.4582 62.0003,32.0002 C62.0003,48.5422 48.5423,62.0002 32.0003,62.0002 M32.0003,0.0002 C14.3273,0.0002 0.0003,14.3272 0.0003,32.0002 C0.0003,49.6732 14.3273,64.0002 32.0003,64.0002 C49.6733,64.0002 64.0003,49.6732 64.0003,32.0002 C64.0003,14.3272 49.6733,0.0002 32.0003,0.0002" sketch:type="MSShapeGroup"></path>
        </g>
    </g>
</svg>