<?xml version="1.0" encoding="UTF-8" standalone="no"?>
<svg width="64px" height="60px" viewBox="0 0 64 60" version="1.1" xmlns="http://www.w3.org/2000/svg" xmlns:xlink="http://www.w3.org/1999/xlink" xmlns:sketch="http://www.bohemiancoding.com/sketch/ns">
    <!-- Generator: Sketch 3.5.1 (25234) - http://www.bohemiancoding.com/sketch -->
    <title>Computer</title>
    <desc>Created with Sketch.</desc>
    <defs></defs>
    <g id="Page-1" stroke="none" stroke-width="1" fill="none" fill-rule="evenodd" sketch:type="MSPage">
        <g id="Computer" sketch:type="MSArtboardGroup" transform="translate(0.000000, -2.000000)" fill="#000000">
            <path d="M44,60 L41.541,60 C40.075,60 38.916,58.404 38.582,57.493 C38.4,56.996 38.228,55.846 38.119,55 L25.881,55 C25.772,55.846 25.6,56.996 25.418,57.493 C25.084,58.404 23.925,60 22.459,60 L20,60 C19.448,60 19,60.448 19,61 C19,61.552 19.448,62 20,62 L44,62 C44.552,62 45,61.552 45,61 C45,60.448 44.552,60 44,60 L44,60 Z M62,44 C62,45.105 61.105,46 60,46 L4,46 C2.895,46 2,45.105 2,44 L2,6 C2,4.895 2.895,4 4,4 L60,4 C61.105,4 62,4.895 62,6 L62,44 Z M32,51 C31.448,51 31,50.552 31,50 C31,49.448 31.448,49 32,49 C32.552,49 33,49.448 33,50 C33,50.552 32.552,51 32,51 L32,51 Z M60,2 L4,2 C1.791,2 0,3.791 0,6 L0,50 C0,52.209 1.791,54 4,54 L60,54 C62.209,54 64,52.209 64,50 L64,6 C64,3.791 62.209,2 60,2 L60,2 Z M11,10 L3,10 L3,11 L11,11 L11,14 L3,14 L3,15 L11,15 L11,18 L3,18 L3,19 L11,19 L11,22 L3,22 L3,23 L11,23 L11,26 L3,26 L3,27 L11,27 L11,30 L3,30 L3,31 L11,31 L11,34 L3,34 L3,35 L11,35 L11,38 L3,38 L3,39 L11,39 L11,42 L3,42 L3,43 L11,43 L11,45 L12,45 L12,11 L61,11 L61,10 L12,10 L11,10 Z M46.5,19 L41.5,19 C41.224,19 41,19.224 41,19.5 L41,21.5 C41,21.776 41.224,22 41.5,22 L46.5,22 C46.776,22 47,21.776 47,21.5 L47,19.5 C47,19.224 46.776,19 46.5,19 L46.5,19 Z M60.5,23 L55.5,23 C55.224,23 55,23.224 55,23.5 L55,25.5 C55,25.776 55.224,26 55.5,26 L60.5,26 C60.776,26 61,25.776 61,25.5 L61,23.5 C61,23.224 60.776,23 60.5,23 L60.5,23 Z M53.5,23 L48.5,23 C48.224,23 48,23.224 48,23.5 L48,25.5 C48,25.776 48.224,26 48.5,26 L53.5,26 C53.776,26 54,25.776 54,25.5 L54,23.5 C54,23.224 53.776,23 53.5,23 L53.5,23 Z M46.5,23 L41.5,23 C41.224,23 41,23.224 41,23.5 L41,25.5 C41,25.776 41.224,26 41.5,26 L46.5,26 C46.776,26 47,25.776 47,25.5 L47,23.5 C47,23.224 46.776,23 46.5,23 L46.5,23 Z M40,25.5 L40,23.5 C40,23.224 39.776,23 39.5,23 L34.5,23 C34.224,23 34,23.224 34,23.5 L34,25.5 C34,25.776 34.224,26 34.5,26 L39.5,26 C39.776,26 40,25.776 40,25.5 L40,25.5 Z M40.5,39 L35.5,39 C35.224,39 35,39.224 35,39.5 L35,41.5 C35,41.776 35.224,42 35.5,42 L40.5,42 C40.776,42 41,41.776 41,41.5 L41,39.5 C41,39.224 40.776,39 40.5,39 L40.5,39 Z M33.5,39 L28.5,39 C28.224,39 28,39.224 28,39.5 L28,41.5 C28,41.776 28.224,42 28.5,42 L33.5,42 C33.776,42 34,41.776 34,41.5 L34,39.5 C34,39.224 33.776,39 33.5,39 L33.5,39 Z M26.5,39 L21.5,39 C21.224,39 21,39.224 21,39.5 L21,41.5 C21,41.776 21.224,42 21.5,42 L26.5,42 C26.776,42 27,41.776 27,41.5 L27,39.5 C27,39.224 26.776,39 26.5,39 L26.5,39 Z M33,25.5 L33,23.5 C33,23.224 32.776,23 32.5,23 L27.5,23 C27.224,23 27,23.224 27,23.5 L27,25.5 C27,25.776 27.224,26 27.5,26 L32.5,26 C32.776,26 33,25.776 33,25.5 L33,25.5 Z M26,25.5 L26,23.5 C26,23.224 25.776,23 25.5,23 L20.5,23 C20.224,23 20,23.224 20,23.5 L20,25.5 C20,25.776 20.224,26 20.5,26 L25.5,26 C25.776,26 26,25.776 26,25.5 L26,25.5 Z M18.5,23 L13.5,23 C13.224,23 13,23.224 13,23.5 L13,25.5 C13,25.776 13.224,26 13.5,26 L18.5,26 C18.776,26 19,25.776 19,25.5 L19,23.5 C19,23.224 18.776,23 18.5,23 L18.5,23 Z M34.5,22 L39.5,22 C39.776,22 40,21.776 40,21.5 L40,19.5 C40,19.224 39.776,19 39.5,19 L34.5,19 C34.224,19 34,19.224 34,19.5 L34,21.5 C34,21.776 34.224,22 34.5,22 L34.5,22 Z M27,21.5 C27,21.776 27.224,22 27.5,22 L32.5,22 C32.776,22 33,21.776 33,21.5 L33,19.5 C33,19.224 32.776,19 32.5,19 L27.5,19 C27.224,19 27,19.224 27,19.5 L27,21.5 Z M60.5,31 L55.5,31 C55.224,31 55,31.224 55,31.5 L55,33.5 C55,33.776 55.224,34 55.5,34 L60.5,34 C60.776,34 61,33.776 61,33.5 L61,31.5 C61,31.224 60.776,31 60.5,31 L60.5,31 Z M53.5,31 L48.5,31 C48.224,31 48,31.224 48,31.5 L48,33.5 C48,33.776 48.224,34 48.5,34 L53.5,34 C53.776,34 54,33.776 54,33.5 L54,31.5 C54,31.224 53.776,31 53.5,31 L53.5,31 Z M46.5,31 L41.5,31 C41.224,31 41,31.224 41,31.5 L41,33.5 C41,33.776 41.224,34 41.5,34 L46.5,34 C46.776,34 47,33.776 47,33.5 L47,31.5 C47,31.224 46.776,31 46.5,31 L46.5,31 Z M27.5,18 L32.5,18 C32.776,18 33,17.776 33,17.5 L33,15.5 C33,15.224 32.776,15 32.5,15 L27.5,15 C27.224,15 27,15.224 27,15.5 L27,17.5 C27,17.776 27.224,18 27.5,18 L27.5,18 Z M20.5,18 L25.5,18 C25.776,18 26,17.776 26,17.5 L26,15.5 C26,15.224 25.776,15 25.5,15 L20.5,15 C20.224,15 20,15.224 20,15.5 L20,17.5 C20,17.776 20.224,18 20.5,18 L20.5,18 Z M18.5,15 L13.5,15 C13.224,15 13,15.224 13,15.5 L13,17.5 C13,17.776 13.224,18 13.5,18 L18.5,18 C18.776,18 19,17.776 19,17.5 L19,15.5 C19,15.224 18.776,15 18.5,15 L18.5,15 Z" sketch:type="MSShapeGroup"></path>
        </g>
    </g>
</svg>