<?xml version="1.0" encoding="UTF-8" standalone="no"?>
<svg width="50px" height="64px" viewBox="0 0 50 64" version="1.1" xmlns="http://www.w3.org/2000/svg" xmlns:xlink="http://www.w3.org/1999/xlink" xmlns:sketch="http://www.bohemiancoding.com/sketch/ns">
    <!-- Generator: Sketch 3.5.1 (25234) - http://www.bohemiancoding.com/sketch -->
    <title>Guitar Pedal 1</title>
    <desc>Created with Sketch.</desc>
    <defs></defs>
    <g id="Page-1" stroke="none" stroke-width="1" fill="none" fill-rule="evenodd" sketch:type="MSPage">
        <g id="Guitar-Pedal-1" sketch:type="MSArtboardGroup" transform="translate(-7.000000, 0.000000)" fill="#000000">
            <path d="M8,25 C7.45,25 7,25.45 7,26 L7,30 C7,30.55 7.45,31 8,31 C8.55,31 9,30.55 9,30 L9,26 C9,25.45 8.55,25 8,25 L8,25 Z M56,25 C55.45,25 55,25.45 55,26 L55,30 C55,30.55 55.45,31 56,31 C56.55,31 57,30.55 57,30 L57,26 C57,25.45 56.55,25 56,25 L56,25 Z M44,11 C42.343,11 41,12.343 41,14 C41,15.657 42.343,17 44,17 C45.657,17 47,15.657 47,14 C47,12.343 45.657,11 44,11 L44,11 Z M36,11 C34.343,11 33,12.343 33,14 C33,15.657 34.343,17 36,17 C37.657,17 39,15.657 39,14 C39,12.343 37.657,11 36,11 L36,11 Z M28,11 C26.343,11 25,12.343 25,14 C25,15.657 26.343,17 28,17 C29.657,17 31,15.657 31,14 C31,12.343 29.657,11 28,11 L28,11 Z M20,11 C18.343,11 17,12.343 17,14 C17,15.657 18.343,17 20,17 C21.657,17 23,15.657 23,14 C23,12.343 21.657,11 20,11 L20,11 Z M49,22 C49,22.551 48.551,23 48,23 L16,23 C15.449,23 15,22.551 15,22 L15,6 C15,5.449 15.449,5 16,5 L48,5 C48.551,5 49,5.449 49,6 L49,22 Z M48,4 L16,4 C14.9,4 14,4.9 14,6 L14,22 C14,23.1 14.9,24 16,24 L48,24 C49.1,24 50,23.1 50,22 L50,6 C50,4.9 49.1,4 48,4 L48,4 Z M15,60 L49,60 C49.55,60 50,59.55 50,59 L50,37 C50,36.45 49.55,36 49,36 L15,36 C14.45,36 14,36.45 14,37 L14,59 C14,59.55 14.45,60 15,60 L15,60 Z M52,33 L12,33 L12,5 C12,3.346 13.346,2 15,2 L49,2 C50.654,2 52,3.346 52,5 L52,33 Z M52,59 C52,60.654 50.654,62 49,62 L15,62 C13.346,62 12,60.654 12,59 L12,34 L52,34 L52,59 Z M49,0 L15,0 C12.25,0 10,2.25 10,5 L10,59 C10,61.75 12.25,64 15,64 L49,64 C51.75,64 54,61.75 54,59 L54,5 C54,2.25 51.75,0 49,0 L49,0 Z" sketch:type="MSShapeGroup"></path>
        </g>
    </g>
</svg>