<?xml version="1.0" encoding="UTF-8" standalone="no"?>
<svg width="52px" height="64px" viewBox="0 0 52 64" version="1.1" xmlns="http://www.w3.org/2000/svg" xmlns:xlink="http://www.w3.org/1999/xlink" xmlns:sketch="http://www.bohemiancoding.com/sketch/ns">
    <!-- Generator: Sketch 3.5.1 (25234) - http://www.bohemiancoding.com/sketch -->
    <title>Guitar Pedal 2</title>
    <desc>Created with Sketch.</desc>
    <defs></defs>
    <g id="Page-1" stroke="none" stroke-width="1" fill="none" fill-rule="evenodd" sketch:type="MSPage">
        <g id="Guitar-Pedal-2" sketch:type="MSArtboardGroup" transform="translate(-6.000000, 0.000000)" fill="#000000">
            <path d="M46.5,17 C49.369,17 51.722,14.803 51.975,12 L46.5,12 C46.224,12 46,11.776 46,11.5 C46,11.224 46.224,11 46.5,11 L51.975,11 C51.722,8.197 49.369,6 46.5,6 C43.462,6 41,8.462 41,11.5 C41,14.538 43.462,17 46.5,17 L46.5,17 Z M17.5,17 C20.538,17 23,14.538 23,11.5 C23,8.631 20.803,6.278 18,6.025 L18,11.5 C18,11.776 17.776,12 17.5,12 C17.224,12 17,11.776 17,11.5 L17,6.025 C14.197,6.278 12,8.631 12,11.5 C12,14.538 14.462,17 17.5,17 L17.5,17 Z M53,42 L11,42 C10.448,42 10,42.448 10,43 C10,43.552 10.448,44 11,44 L53,44 C53.552,44 54,43.552 54,43 C54,42.448 53.552,42 53,42 L53,42 Z M31.5,13 C32.328,13 33,12.328 33,11.5 C33,10.672 32.328,10 31.5,10 C30.672,10 30,10.672 30,11.5 C30,12.328 30.672,13 31.5,13 L31.5,13 Z M31.5,31 C34.538,31 37,28.538 37,25.5 C37,22.631 34.803,20.278 32,20.025 L32,25.5 C32,25.776 31.776,26 31.5,26 C31.224,26 31,25.776 31,25.5 L31,20.025 C28.197,20.278 26,22.631 26,25.5 C26,28.538 28.462,31 31.5,31 L31.5,31 Z M32,57 C29.794,57 28,55.206 28,53 C28,50.794 29.794,49 32,49 C34.206,49 36,50.794 36,53 C36,55.206 34.206,57 32,57 L32,57 Z M32,48 C29.239,48 27,50.239 27,53 C27,55.761 29.239,58 32,58 C34.761,58 37,55.761 37,53 C37,50.239 34.761,48 32,48 L32,48 Z M32,50 C30.343,50 29,51.343 29,53 C29,54.657 30.343,56 32,56 C33.657,56 35,54.657 35,53 C35,51.343 33.657,50 32,50 L32,50 Z M56,59 C56,60.654 54.654,62 53,62 L11,62 C9.346,62 8,60.654 8,59 L8,5 C8,3.346 9.346,2 11,2 L53,2 C54.654,2 56,3.346 56,5 L56,59 Z M53,0 L11,0 C8.25,0 6,2.25 6,5 L6,59 C6,61.75 8.25,64 11,64 L53,64 C55.75,64 58,61.75 58,59 L58,5 C58,2.25 55.75,0 53,0 L53,0 Z" sketch:type="MSShapeGroup"></path>
        </g>
    </g>
</svg>