<?xml version="1.0" encoding="UTF-8" standalone="no"?>
<svg width="64px" height="56px" viewBox="0 0 64 56" version="1.1" xmlns="http://www.w3.org/2000/svg" xmlns:xlink="http://www.w3.org/1999/xlink" xmlns:sketch="http://www.bohemiancoding.com/sketch/ns">
    <!-- Generator: Sketch 3.5.1 (25234) - http://www.bohemiancoding.com/sketch -->
    <title>Headphones</title>
    <desc>Created with Sketch.</desc>
    <defs></defs>
    <g id="Page-1" stroke="none" stroke-width="1" fill="none" fill-rule="evenodd" sketch:type="MSPage">
        <g id="Headphones" sketch:type="MSArtboardGroup" transform="translate(0.000000, -4.000000)" fill="#000000">
            <path d="M63,42.2795 L63,37.7225 C63.595,37.3765 64,36.7385 64,36.0005 C64,18.3265 49.673,4.0005 32,4.0005 C14.327,4.0005 0,18.3265 0,36.0005 C0,36.7385 0.405,37.3765 1,37.7225 L1,42.2795 C0.406,42.6275 0,43.2655 0,44.0005 L0,52.0005 C0,53.0995 0.9,54.0005 2,54.0005 C3.1,54.0005 4,53.0995 4,52.0005 L4,51.0005 L5,51.0005 L5,55.0005 C5,57.7505 7.25,60.0005 10,60.0005 L11,60.0005 C12.65,60.0005 14,58.6495 14,57.0005 L14,39.0005 C14,37.3495 12.65,36.0005 11,36.0005 L10,36.0005 C7.25,36.0005 5,38.2505 5,41.0005 L5,46.0005 L4,46.0005 L4,44.0005 C4,43.2655 3.594,42.6275 3,42.2795 L3,37.7225 C3.595,37.3765 4,36.7385 4,36.0005 C4,20.5365 16.536,8.0005 32,8.0005 C47.464,8.0005 60,20.5365 60,36.0005 C60,36.7385 60.405,37.3765 61,37.7225 L61,42.2795 C60.406,42.6275 60,43.2655 60,44.0005 L60,46.0005 L59,46.0005 L59,41.0005 C59,38.2505 56.75,36.0005 54,36.0005 L53,36.0005 C51.35,36.0005 50,37.3495 50,39.0005 L50,57.0005 C50,58.6495 51.35,60.0005 53,60.0005 L54,60.0005 C56.75,60.0005 59,57.7505 59,55.0005 L59,51.0005 L60,51.0005 L60,52.0005 C60,53.0995 60.9,54.0005 62,54.0005 C63.1,54.0005 64,53.0995 64,52.0005 L64,44.0005 C64,43.2655 63.594,42.6275 63,42.2795" sketch:type="MSShapeGroup"></path>
        </g>
    </g>
</svg>