<?xml version="1.0" encoding="UTF-8" standalone="no"?>
<svg width="46px" height="64px" viewBox="0 0 46 64" version="1.1" xmlns="http://www.w3.org/2000/svg" xmlns:xlink="http://www.w3.org/1999/xlink" xmlns:sketch="http://www.bohemiancoding.com/sketch/ns">
    <!-- Generator: Sketch 3.5.1 (25234) - http://www.bohemiancoding.com/sketch -->
    <title>Microphone 2</title>
    <desc>Created with Sketch.</desc>
    <defs></defs>
    <g id="Page-1" stroke="none" stroke-width="1" fill="none" fill-rule="evenodd" sketch:type="MSPage">
        <g id="Microphone-2" sketch:type="MSArtboardGroup" transform="translate(-9.000000, 0.000000)" fill="#000000">
            <path d="M29,52 L35,52 C35.55,52 36,51.55 36,51 C36,50.45 35.55,50 35,50 L29,50 C28.45,50 28,50.45 28,51 C28,51.55 28.45,52 29,52 L29,52 Z M47,32 C46.448,32 46,32.448 46,33 C46,33.552 46.448,34 47,34 C47.552,34 48,33.552 48,33 C48,32.448 47.552,32 47,32 L47,32 Z M41,32 C40.448,32 40,32.448 40,33 C40,33.552 40.448,34 41,34 C41.552,34 42,33.552 42,33 C42,32.448 41.552,32 41,32 L41,32 Z M35,32 C34.448,32 34,32.448 34,33 C34,33.552 34.448,34 35,34 C35.552,34 36,33.552 36,33 C36,32.448 35.552,32 35,32 L35,32 Z M29,32 C28.448,32 28,32.448 28,33 C28,33.552 28.448,34 29,34 C29.552,34 30,33.552 30,33 C30,32.448 29.552,32 29,32 L29,32 Z M17,32 C16.448,32 16,32.448 16,33 C16,33.552 16.448,34 17,34 C17.552,34 18,33.552 18,33 C18,32.448 17.552,32 17,32 L17,32 Z M23,32 C22.448,32 22,32.448 22,33 C22,33.552 22.448,34 23,34 C23.552,34 24,33.552 24,33 C24,32.448 23.552,32 23,32 L23,32 Z M44,36 C43.448,36 43,36.448 43,37 C43,37.552 43.448,38 44,38 C44.552,38 45,37.552 45,37 C45,36.448 44.552,36 44,36 L44,36 Z M38,36 C37.448,36 37,36.448 37,37 C37,37.552 37.448,38 38,38 C38.552,38 39,37.552 39,37 C39,36.448 38.552,36 38,36 L38,36 Z M32,36 C31.448,36 31,36.448 31,37 C31,37.552 31.448,38 32,38 C32.552,38 33,37.552 33,37 C33,36.448 32.552,36 32,36 L32,36 Z M26,36 C25.448,36 25,36.448 25,37 C25,37.552 25.448,38 26,38 C26.552,38 27,37.552 27,37 C27,36.448 26.552,36 26,36 L26,36 Z M20,36 C19.448,36 19,36.448 19,37 C19,37.552 19.448,38 20,38 C20.552,38 21,37.552 21,37 C21,36.448 20.552,36 20,36 L20,36 Z M44,28 C43.448,28 43,28.448 43,29 C43,29.552 43.448,30 44,30 C44.552,30 45,29.552 45,29 C45,28.448 44.552,28 44,28 L44,28 Z M38,28 C37.448,28 37,28.448 37,29 C37,29.552 37.448,30 38,30 C38.552,30 39,29.552 39,29 C39,28.448 38.552,28 38,28 L38,28 Z M32,28 C31.448,28 31,28.448 31,29 C31,29.552 31.448,30 32,30 C32.552,30 33,29.552 33,29 C33,28.448 32.552,28 32,28 L32,28 Z M26,28 C25.448,28 25,28.448 25,29 C25,29.552 25.448,30 26,30 C26.552,30 27,29.552 27,29 C27,28.448 26.552,28 26,28 L26,28 Z M20,28 C19.448,28 19,28.448 19,29 C19,29.552 19.448,30 20,30 C20.552,30 21,29.552 21,29 C21,28.448 20.552,28 20,28 L20,28 Z M47,24 C46.448,24 46,24.448 46,25 C46,25.552 46.448,26 47,26 C47.552,26 48,25.552 48,25 C48,24.448 47.552,24 47,24 L47,24 Z M41,24 C40.448,24 40,24.448 40,25 C40,25.552 40.448,26 41,26 C41.552,26 42,25.552 42,25 C42,24.448 41.552,24 41,24 L41,24 Z M35,24 C34.448,24 34,24.448 34,25 C34,25.552 34.448,26 35,26 C35.552,26 36,25.552 36,25 C36,24.448 35.552,24 35,24 L35,24 Z M29,24 C28.448,24 28,24.448 28,25 C28,25.552 28.448,26 29,26 C29.552,26 30,25.552 30,25 C30,24.448 29.552,24 29,24 L29,24 Z M17,24 C16.448,24 16,24.448 16,25 C16,25.552 16.448,26 17,26 C17.552,26 18,25.552 18,25 C18,24.448 17.552,24 17,24 L17,24 Z M23,24 C22.448,24 22,24.448 22,25 C22,25.552 22.448,26 23,26 C23.552,26 24,25.552 24,25 C24,24.448 23.552,24 23,24 L23,24 Z M44,20 C43.448,20 43,20.448 43,21 C43,21.552 43.448,22 44,22 C44.552,22 45,21.552 45,21 C45,20.448 44.552,20 44,20 L44,20 Z M38,20 C37.448,20 37,20.448 37,21 C37,21.552 37.448,22 38,22 C38.552,22 39,21.552 39,21 C39,20.448 38.552,20 38,20 L38,20 Z M32,20 C31.448,20 31,20.448 31,21 C31,21.552 31.448,22 32,22 C32.552,22 33,21.552 33,21 C33,20.448 32.552,20 32,20 L32,20 Z M26,20 C25.448,20 25,20.448 25,21 C25,21.552 25.448,22 26,22 C26.552,22 27,21.552 27,21 C27,20.448 26.552,20 26,20 L26,20 Z M20,20 C19.448,20 19,20.448 19,21 C19,21.552 19.448,22 20,22 C20.552,22 21,21.552 21,21 C21,20.448 20.552,20 20,20 L20,20 Z M47,16 C46.448,16 46,16.448 46,17 C46,17.552 46.448,18 47,18 C47.552,18 48,17.552 48,17 C48,16.448 47.552,16 47,16 L47,16 Z M41,16 C40.448,16 40,16.448 40,17 C40,17.552 40.448,18 41,18 C41.552,18 42,17.552 42,17 C42,16.448 41.552,16 41,16 L41,16 Z M35,16 C34.448,16 34,16.448 34,17 C34,17.552 34.448,18 35,18 C35.552,18 36,17.552 36,17 C36,16.448 35.552,16 35,16 L35,16 Z M29,16 C28.448,16 28,16.448 28,17 C28,17.552 28.448,18 29,18 C29.552,18 30,17.552 30,17 C30,16.448 29.552,16 29,16 L29,16 Z M17,16 C16.448,16 16,16.448 16,17 C16,17.552 16.448,18 17,18 C17.552,18 18,17.552 18,17 C18,16.448 17.552,16 17,16 L17,16 Z M23,16 C22.448,16 22,16.448 22,17 C22,17.552 22.448,18 23,18 C23.552,18 24,17.552 24,17 C24,16.448 23.552,16 23,16 L23,16 Z M44,12 C43.448,12 43,12.448 43,13 C43,13.552 43.448,14 44,14 C44.552,14 45,13.552 45,13 C45,12.448 44.552,12 44,12 L44,12 Z M38,12 C37.448,12 37,12.448 37,13 C37,13.552 37.448,14 38,14 C38.552,14 39,13.552 39,13 C39,12.448 38.552,12 38,12 L38,12 Z M32,12 C31.448,12 31,12.448 31,13 C31,13.552 31.448,14 32,14 C32.552,14 33,13.552 33,13 C33,12.448 32.552,12 32,12 L32,12 Z M26,12 C25.448,12 25,12.448 25,13 C25,13.552 25.448,14 26,14 C26.552,14 27,13.552 27,13 C27,12.448 26.552,12 26,12 L26,12 Z M20,12 C19.448,12 19,12.448 19,13 C19,13.552 19.448,14 20,14 C20.552,14 21,13.552 21,13 C21,12.448 20.552,12 20,12 L20,12 Z M47,8 C46.448,8 46,8.448 46,9 C46,9.552 46.448,10 47,10 C47.552,10 48,9.552 48,9 C48,8.448 47.552,8 47,8 L47,8 Z M41,8 C40.448,8 40,8.448 40,9 C40,9.552 40.448,10 41,10 C41.552,10 42,9.552 42,9 C42,8.448 41.552,8 41,8 L41,8 Z M35,8 C34.448,8 34,8.448 34,9 C34,9.552 34.448,10 35,10 C35.552,10 36,9.552 36,9 C36,8.448 35.552,8 35,8 L35,8 Z M29,8 C28.448,8 28,8.448 28,9 C28,9.552 28.448,10 29,10 C29.552,10 30,9.552 30,9 C30,8.448 29.552,8 29,8 L29,8 Z M17,8 C16.448,8 16,8.448 16,9 C16,9.552 16.448,10 17,10 C17.552,10 18,9.552 18,9 C18,8.448 17.552,8 17,8 L17,8 Z M23,8 C22.448,8 22,8.448 22,9 C22,9.552 22.448,10 23,10 C23.552,10 24,9.552 24,9 C24,8.448 23.552,8 23,8 L23,8 Z M44,4 C43.448,4 43,4.448 43,5 C43,5.552 43.448,6 44,6 C44.552,6 45,5.552 45,5 C45,4.448 44.552,4 44,4 L44,4 Z M38,4 C37.448,4 37,4.448 37,5 C37,5.552 37.448,6 38,6 C38.552,6 39,5.552 39,5 C39,4.448 38.552,4 38,4 L38,4 Z M32,4 C31.448,4 31,4.448 31,5 C31,5.552 31.448,6 32,6 C32.552,6 33,5.552 33,5 C33,4.448 32.552,4 32,4 L32,4 Z M26,4 C25.448,4 25,4.448 25,5 C25,5.552 25.448,6 26,6 C26.552,6 27,5.552 27,5 C27,4.448 26.552,4 26,4 L26,4 Z M20,4 C19.448,4 19,4.448 19,5 C19,5.552 19.448,6 20,6 C20.552,6 21,5.552 21,5 C21,4.448 20.552,4 20,4 L20,4 Z M53,46 L11,46 L11,42 L53,42 L53,46 Z M51,54 L13,54 L13,48 L51,48 L51,54 Z M13,7 C13,4.243 15.243,2 18,2 L46,2 C48.757,2 51,4.243 51,7 L51,40 L13,40 L13,7 Z M53,40 L53,7 C53,3.134 49.866,0 46,0 L18,0 C14.134,0 11,3.134 11,7 L11,40 L9,40 L9,48 L11,48 L11,56 L19,60 L19,64 L45,64 L45,60 L53,56 L53,48 L55,48 L55,40 L53,40 Z" sketch:type="MSShapeGroup"></path>
        </g>
    </g>
</svg>