<?xml version="1.0" encoding="UTF-8" standalone="no"?>
<svg width="38px" height="64px" viewBox="0 0 38 64" version="1.1" xmlns="http://www.w3.org/2000/svg" xmlns:xlink="http://www.w3.org/1999/xlink" xmlns:sketch="http://www.bohemiancoding.com/sketch/ns">
    <!-- Generator: Sketch 3.5.1 (25234) - http://www.bohemiancoding.com/sketch -->
    <title>Microphone 1</title>
    <desc>Created with Sketch.</desc>
    <defs></defs>
    <g id="Page-1" stroke="none" stroke-width="1" fill="none" fill-rule="evenodd" sketch:type="MSPage">
        <g id="Microphone-1" sketch:type="MSArtboardGroup" transform="translate(-13.000000, 0.000000)" fill="#000000">
            <path d="M35,48 L29,48 C28.45,48 28,48.45 28,49 C28,49.55 28.45,50 29,50 L35,50 C35.55,50 36,49.55 36,49 C36,48.45 35.55,48 35,48 M41,26 C40.448,26 40,26.448 40,27 C40,27.552 40.448,28 41,28 C41.552,28 42,27.552 42,27 C42,26.448 41.552,26 41,26 M35,26 C34.448,26 34,26.448 34,27 C34,27.552 34.448,28 35,28 C35.552,28 36,27.552 36,27 C36,26.448 35.552,26 35,26 M29,26 C28.448,26 28,26.448 28,27 C28,27.552 28.448,28 29,28 C29.552,28 30,27.552 30,27 C30,26.448 29.552,26 29,26 M23,26 C22.448,26 22,26.448 22,27 C22,27.552 22.448,28 23,28 C23.552,28 24,27.552 24,27 C24,26.448 23.552,26 23,26 M41,18 C40.448,18 40,18.448 40,19 C40,19.552 40.448,20 41,20 C41.552,20 42,19.552 42,19 C42,18.448 41.552,18 41,18 M35,18 C34.448,18 34,18.448 34,19 C34,19.552 34.448,20 35,20 C35.552,20 36,19.552 36,19 C36,18.448 35.552,18 35,18 M29,18 C28.448,18 28,18.448 28,19 C28,19.552 28.448,20 29,20 C29.552,20 30,19.552 30,19 C30,18.448 29.552,18 29,18 M23,18 C22.448,18 22,18.448 22,19 C22,19.552 22.448,20 23,20 C23.552,20 24,19.552 24,19 C24,18.448 23.552,18 23,18 M41,10 C40.448,10 40,10.448 40,11 C40,11.552 40.448,12 41,12 C41.552,12 42,11.552 42,11 C42,10.448 41.552,10 41,10 M35,10 C34.448,10 34,10.448 34,11 C34,11.552 34.448,12 35,12 C35.552,12 36,11.552 36,11 C36,10.448 35.552,10 35,10 M29,10 C28.448,10 28,10.448 28,11 C28,11.552 28.448,12 29,12 C29.552,12 30,11.552 30,11 C30,10.448 29.552,10 29,10 M23,10 C22.448,10 22,10.448 22,11 C22,11.552 22.448,12 23,12 C23.552,12 24,11.552 24,11 C24,10.448 23.552,10 23,10 M44,30 C43.448,30 43,30.448 43,31 C43,31.552 43.448,32 44,32 C44.552,32 45,31.552 45,31 C45,30.448 44.552,30 44,30 M38,30 C37.448,30 37,30.448 37,31 C37,31.552 37.448,32 38,32 C38.552,32 39,31.552 39,31 C39,30.448 38.552,30 38,30 M32,30 C31.448,30 31,30.448 31,31 C31,31.552 31.448,32 32,32 C32.552,32 33,31.552 33,31 C33,30.448 32.552,30 32,30 M26,30 C25.448,30 25,30.448 25,31 C25,31.552 25.448,32 26,32 C26.552,32 27,31.552 27,31 C27,30.448 26.552,30 26,30 M20,30 C19.448,30 19,30.448 19,31 C19,31.552 19.448,32 20,32 C20.552,32 21,31.552 21,31 C21,30.448 20.552,30 20,30 M44,22 C43.448,22 43,22.448 43,23 C43,23.552 43.448,24 44,24 C44.552,24 45,23.552 45,23 C45,22.448 44.552,22 44,22 M38,22 C37.448,22 37,22.448 37,23 C37,23.552 37.448,24 38,24 C38.552,24 39,23.552 39,23 C39,22.448 38.552,22 38,22 M32,22 C31.448,22 31,22.448 31,23 C31,23.552 31.448,24 32,24 C32.552,24 33,23.552 33,23 C33,22.448 32.552,22 32,22 M26,22 C25.448,22 25,22.448 25,23 C25,23.552 25.448,24 26,24 C26.552,24 27,23.552 27,23 C27,22.448 26.552,22 26,22 M20,22 C19.448,22 19,22.448 19,23 C19,23.552 19.448,24 20,24 C20.552,24 21,23.552 21,23 C21,22.448 20.552,22 20,22 M44,14 C43.448,14 43,14.448 43,15 C43,15.552 43.448,16 44,16 C44.552,16 45,15.552 45,15 C45,14.448 44.552,14 44,14 M38,14 C37.448,14 37,14.448 37,15 C37,15.552 37.448,16 38,16 C38.552,16 39,15.552 39,15 C39,14.448 38.552,14 38,14 M32,14 C31.448,14 31,14.448 31,15 C31,15.552 31.448,16 32,16 C32.552,16 33,15.552 33,15 C33,14.448 32.552,14 32,14 M26,14 C25.448,14 25,14.448 25,15 C25,15.552 25.448,16 26,16 C26.552,16 27,15.552 27,15 C27,14.448 26.552,14 26,14 M20,14 C19.448,14 19,14.448 19,15 C19,15.552 19.448,16 20,16 C20.552,16 21,15.552 21,15 C21,14.448 20.552,14 20,14 M44,6 C43.448,6 43,6.448 43,7 C43,7.552 43.448,8 44,8 C44.552,8 45,7.552 45,7 C45,6.448 44.552,6 44,6 M38,6 C37.448,6 37,6.448 37,7 C37,7.552 37.448,8 38,8 C38.552,8 39,7.552 39,7 C39,6.448 38.552,6 38,6 M32,6 C31.448,6 31,6.448 31,7 C31,7.552 31.448,8 32,8 C32.552,8 33,7.552 33,7 C33,6.448 32.552,6 32,6 M26,6 C25.448,6 25,6.448 25,7 C25,7.552 25.448,8 26,8 C26.552,8 27,7.552 27,7 C27,6.448 26.552,6 26,6 M20,6 C19.448,6 19,6.448 19,7 C19,7.552 19.448,8 20,8 C20.552,8 21,7.552 21,7 C21,6.448 20.552,6 20,6 M45.421,34 L18.579,34 C16.611,34 15,32.412 15,30.471 L16.789,5.765 C16.789,4.794 17.595,4 18.579,4 L45.421,4 C46.405,4 47.211,4.794 47.211,5.765 L49,30.471 C49,32.412 47.389,34 45.421,34 M51,30.471 L51,30.398 L50.995,30.326 L49.21,5.679 C49.164,3.643 47.482,2 45.421,2 L45,2 L45,1 C45,0.45 44.55,0 44,0 L20,0 C19.45,0 19,0.45 19,1 L19,2 L18.579,2 C16.518,2 14.836,3.643 14.79,5.679 L13.005,30.326 L13,30.398 L13,30.471 C13,32.976 14.691,35.094 17,35.771 L17,38 C14.791,38 13,39.791 13,42 L13,64 L15,64 L15,42 C15,40.895 15.895,40 17,40 L47,40 C48.105,40 49,40.895 49,42 L49,64 L51,64 L51,42 C51,39.791 49.209,38 47,38 L47,35.771 C49.309,35.094 51,32.976 51,30.471" sketch:type="MSShapeGroup"></path>
        </g>
    </g>
</svg>