<?xml version="1.0" encoding="UTF-8" standalone="no"?>
<svg width="64px" height="48px" viewBox="0 0 64 48" version="1.1" xmlns="http://www.w3.org/2000/svg" xmlns:xlink="http://www.w3.org/1999/xlink" xmlns:sketch="http://www.bohemiancoding.com/sketch/ns">
    <!-- Generator: Sketch 3.5.1 (25234) - http://www.bohemiancoding.com/sketch -->
    <title>Radio</title>
    <desc>Created with Sketch.</desc>
    <defs></defs>
    <g id="Page-1" stroke="none" stroke-width="1" fill="none" fill-rule="evenodd" sketch:type="MSPage">
        <g id="Radio" sketch:type="MSArtboardGroup" transform="translate(0.000000, -8.000000)" fill="#000000">
            <path d="M30,42 C30.552,42 31,41.552 31,41 C31,40.448 30.552,40 30,40 C29.448,40 29,40.448 29,41 C29,41.552 29.448,42 30,42 L30,42 Z M34,42 C34.552,42 35,41.552 35,41 C35,40.448 34.552,40 34,40 C33.448,40 33,40.448 33,41 C33,41.552 33.448,42 34,42 L34,42 Z M17,19 L7,19 C6.45,19 6,19.45 6,20 L6,23 C6,23.55 6.45,24 7,24 L17,24 C17.55,24 18,23.55 18,23 L18,20 C18,19.45 17.55,19 17,19 L17,19 Z M37,19 C36.448,19 36,19.448 36,20 C36,20.552 36.448,21 37,21 C37.552,21 38,20.552 38,20 C38,19.448 37.552,19 37,19 L37,19 Z M41,19 C40.448,19 40,19.448 40,20 C40,20.552 40.448,21 41,21 C41.552,21 42,20.552 42,20 C42,19.448 41.552,19 41,19 L41,19 Z M45,19 C44.448,19 44,19.448 44,20 C44,20.552 44.448,21 45,21 C45.552,21 46,20.552 46,20 C46,19.448 45.552,19 45,19 L45,19 Z M50,19 C48.895,19 48,19.895 48,21 C48,22.105 48.895,23 50,23 C51.105,23 52,22.105 52,21 C52,19.895 51.105,19 50,19 L50,19 Z M56,19 C54.895,19 54,19.895 54,21 C54,22.105 54.895,23 56,23 C57.105,23 58,22.105 58,21 C58,19.895 57.105,19 56,19 L56,19 Z M27,39 C27,38.45 27.45,38 28,38 L36,38 C36.55,38 37,38.45 37,39 L37,43 C37,43.55 36.55,44 36,44 L28,44 C27.45,44 27,43.55 27,43 L27,39 Z M28,45 L36,45 C37.103,45 38,44.103 38,43 L38,39 C38,37.897 37.103,37 36,37 L28,37 C26.897,37 26,37.897 26,39 L26,43 C26,44.103 26.897,45 28,45 L28,45 Z M49,34 C52.86,34 56,37.14 56,41 C56,44.86 52.86,48 49,48 C45.14,48 42,44.86 42,41 C42,37.14 45.14,34 49,34 L49,34 Z M49,50 C53.971,50 58,45.971 58,41 C58,36.029 53.971,32 49,32 C44.029,32 40,36.029 40,41 C40,45.971 44.029,50 49,50 L49,50 Z M15,34 C18.86,34 22,37.14 22,41 C22,44.86 18.86,48 15,48 C11.14,48 8,44.86 8,41 C8,37.14 11.14,34 15,34 L15,34 Z M15,50 C19.971,50 24,45.971 24,41 C24,36.029 19.971,32 15,32 C10.029,32 6,36.029 6,41 C6,45.971 10.029,50 15,50 L15,50 Z M62,27 L2,27 L2,19 C2,17.346 3.346,16 5,16 L59,16 C60.654,16 62,17.346 62,19 L62,27 Z M62,51 C62,52.654 60.654,54 59,54 L5,54 C3.346,54 2,52.654 2,51 L2,28 L62,28 L62,51 Z M11,11 C11,10.448 11.448,10 12,10 L52,10 C52.552,10 53,10.448 53,11 L53,14 L11,14 L11,11 Z M59,14 L55,14 L55,10.044 L55,10 C55,8.9 54.1,8 53,8 L11,8 C9.9,8 9,8.9 9,10 L9,14 L5,14 C2.25,14 0,16.25 0,19 L0,51 C0,53.75 2.25,56 5,56 L59,56 C61.75,56 64,53.75 64,51 L64,19 C64,16.25 61.75,14 59,14 L59,14 Z" sketch:type="MSShapeGroup"></path>
        </g>
    </g>
</svg>