<?xml version="1.0" encoding="UTF-8" standalone="no"?>
<svg width="64px" height="64px" viewBox="0 0 64 64" version="1.1" xmlns="http://www.w3.org/2000/svg" xmlns:xlink="http://www.w3.org/1999/xlink" xmlns:sketch="http://www.bohemiancoding.com/sketch/ns">
    <!-- Generator: Sketch 3.5.1 (25234) - http://www.bohemiancoding.com/sketch -->
    <title>Sampler</title>
    <desc>Created with Sketch.</desc>
    <defs></defs>
    <g id="Page-1" stroke="none" stroke-width="1" fill="none" fill-rule="evenodd" sketch:type="MSPage">
        <g id="Sampler" sketch:type="MSArtboardGroup" fill="#000000">
            <path d="M62,59 C62,60.654 60.654,62 59,62 L5,62 C3.346,62 2,60.654 2,59 L2,5 C2,3.346 3.346,2 5,2 L59,2 C60.654,2 62,3.346 62,5 L62,59 Z M59,0 L5,0 C2.239,0 0,2.239 0,5 L0,59 C0,61.761 2.239,64 5,64 L59,64 C61.761,64 64,61.761 64,59 L64,5 C64,2.239 61.761,0 59,0 L59,0 Z M58,48 L57,48 L57,39 C57,38.448 56.552,38 56,38 C55.448,38 55,38.448 55,39 L55,48 L54,48 C53.45,48 53,48.45 53,49 C53,49.55 53.45,50 54,50 L55,50 L55,59 C55,59.552 55.448,60 56,60 C56.552,60 57,59.552 57,59 L57,50 L58,50 C58.55,50 59,49.55 59,49 C59,48.45 58.55,48 58,48 L58,48 Z M58,24 L57,24 L57,15 C57,14.448 56.552,14 56,14 C55.448,14 55,14.448 55,15 L55,24 L54,24 C53.45,24 53,24.45 53,25 C53,25.55 53.45,26 54,26 L55,26 L55,35 C55,35.552 55.448,36 56,36 C56.552,36 57,35.552 57,35 L57,26 L58,26 C58.55,26 59,25.55 59,25 C59,24.45 58.55,24 58,24 L58,24 Z M51,10 L49,10 C48.45,10 48,10.45 48,11 C48,11.55 48.45,12 49,12 L51,12 C51.55,12 52,11.55 52,11 C52,10.45 51.55,10 51,10 L51,10 Z M55,12 L57,12 C57.55,12 58,11.55 58,11 C58,10.45 57.55,10 57,10 L55,10 C54.45,10 54,10.45 54,11 C54,11.55 54.45,12 55,12 L55,12 Z M51,6 L49,6 C48.45,6 48,6.45 48,7 C48,7.55 48.45,8 49,8 L51,8 C51.55,8 52,7.55 52,7 C52,6.45 51.55,6 51,6 L51,6 Z M55,8 L57,8 C57.55,8 58,7.55 58,7 C58,6.45 57.55,6 57,6 L55,6 C54.45,6 54,6.45 54,7 C54,7.55 54.45,8 55,8 L55,8 Z M18,7 C18,6.45 17.55,6 17,6 L15,6 C14.45,6 14,6.45 14,7 C14,7.55 14.45,8 15,8 L17,8 C17.55,8 18,7.55 18,7 L18,7 Z M11,8 C11.552,8 12,7.552 12,7 C12,6.448 11.552,6 11,6 C10.448,6 10,6.448 10,7 C10,7.552 10.448,8 11,8 L11,8 Z M7,8 C7.552,8 8,7.552 8,7 C8,6.448 7.552,6 7,6 C6.448,6 6,6.448 6,7 C6,7.552 6.448,8 7,8 L7,8 Z M49,58 C49,58.552 48.552,59 48,59 L42,59 C41.448,59 41,58.552 41,58 L41,52 C41,51.448 41.448,51 42,51 L48,51 C48.552,51 49,51.448 49,52 L49,58 Z M48,50 L42,50 C40.897,50 40,50.897 40,52 L40,58 C40,59.103 40.897,60 42,60 L48,60 C49.103,60 50,59.103 50,58 L50,52 C50,50.897 49.103,50 48,50 L48,50 Z M37,58 C37,58.552 36.552,59 36,59 L30,59 C29.448,59 29,58.552 29,58 L29,52 C29,51.448 29.448,51 30,51 L36,51 C36.552,51 37,51.448 37,52 L37,58 Z M36,50 L30,50 C28.897,50 28,50.897 28,52 L28,58 C28,59.103 28.897,60 30,60 L36,60 C37.103,60 38,59.103 38,58 L38,52 C38,50.897 37.103,50 36,50 L36,50 Z M25,58 C25,58.552 24.552,59 24,59 L18,59 C17.448,59 17,58.552 17,58 L17,52 C17,51.448 17.448,51 18,51 L24,51 C24.552,51 25,51.448 25,52 L25,58 Z M24,50 L18,50 C16.897,50 16,50.897 16,52 L16,58 C16,59.103 16.897,60 18,60 L24,60 C25.103,60 26,59.103 26,58 L26,52 C26,50.897 25.103,50 24,50 L24,50 Z M13,58 C13,58.552 12.552,59 12,59 L6,59 C5.448,59 5,58.552 5,58 L5,52 C5,51.448 5.448,51 6,51 L12,51 C12.552,51 13,51.448 13,52 L13,58 Z M12,50 L6,50 C4.897,50 4,50.897 4,52 L4,58 C4,59.103 4.897,60 6,60 L12,60 C13.103,60 14,59.103 14,58 L14,52 C14,50.897 13.103,50 12,50 L12,50 Z M49,46 C49,46.552 48.552,47 48,47 L42,47 C41.448,47 41,46.552 41,46 L41,40 C41,39.448 41.448,39 42,39 L48,39 C48.552,39 49,39.448 49,40 L49,46 Z M48,38 L42,38 C40.897,38 40,38.897 40,40 L40,46 C40,47.103 40.897,48 42,48 L48,48 C49.103,48 50,47.103 50,46 L50,40 C50,38.897 49.103,38 48,38 L48,38 Z M37,46 C37,46.552 36.552,47 36,47 L30,47 C29.448,47 29,46.552 29,46 L29,40 C29,39.448 29.448,39 30,39 L36,39 C36.552,39 37,39.448 37,40 L37,46 Z M36,38 L30,38 C28.897,38 28,38.897 28,40 L28,46 C28,47.103 28.897,48 30,48 L36,48 C37.103,48 38,47.103 38,46 L38,40 C38,38.897 37.103,38 36,38 L36,38 Z M25,46 C25,46.552 24.552,47 24,47 L18,47 C17.448,47 17,46.552 17,46 L17,40 C17,39.448 17.448,39 18,39 L24,39 C24.552,39 25,39.448 25,40 L25,46 Z M24,38 L18,38 C16.897,38 16,38.897 16,40 L16,46 C16,47.103 16.897,48 18,48 L24,48 C25.103,48 26,47.103 26,46 L26,40 C26,38.897 25.103,38 24,38 L24,38 Z M13,46 C13,46.552 12.552,47 12,47 L6,47 C5.448,47 5,46.552 5,46 L5,40 C5,39.448 5.448,39 6,39 L12,39 C12.552,39 13,39.448 13,40 L13,46 Z M12,38 L6,38 C4.897,38 4,38.897 4,40 L4,46 C4,47.103 4.897,48 6,48 L12,48 C13.103,48 14,47.103 14,46 L14,40 C14,38.897 13.103,38 12,38 L12,38 Z M49,34 C49,34.552 48.552,35 48,35 L42,35 C41.448,35 41,34.552 41,34 L41,28 C41,27.448 41.448,27 42,27 L48,27 C48.552,27 49,27.448 49,28 L49,34 Z M48,26 L42,26 C40.897,26 40,26.897 40,28 L40,34 C40,35.103 40.897,36 42,36 L48,36 C49.103,36 50,35.103 50,34 L50,28 C50,26.897 49.103,26 48,26 L48,26 Z M37,34 C37,34.552 36.552,35 36,35 L30,35 C29.448,35 29,34.552 29,34 L29,28 C29,27.448 29.448,27 30,27 L36,27 C36.552,27 37,27.448 37,28 L37,34 Z M36,26 L30,26 C28.897,26 28,26.897 28,28 L28,34 C28,35.103 28.897,36 30,36 L36,36 C37.103,36 38,35.103 38,34 L38,28 C38,26.897 37.103,26 36,26 L36,26 Z M25,34 C25,34.552 24.552,35 24,35 L18,35 C17.448,35 17,34.552 17,34 L17,28 C17,27.448 17.448,27 18,27 L24,27 C24.552,27 25,27.448 25,28 L25,34 Z M24,26 L18,26 C16.897,26 16,26.897 16,28 L16,34 C16,35.103 16.897,36 18,36 L24,36 C25.103,36 26,35.103 26,34 L26,28 C26,26.897 25.103,26 24,26 L24,26 Z M13,34 C13,34.552 12.552,35 12,35 L6,35 C5.448,35 5,34.552 5,34 L5,28 C5,27.448 5.448,27 6,27 L12,27 C12.552,27 13,27.448 13,28 L13,34 Z M12,26 L6,26 C4.897,26 4,26.897 4,28 L4,34 C4,35.103 4.897,36 6,36 L12,36 C13.103,36 14,35.103 14,34 L14,28 C14,26.897 13.103,26 12,26 L12,26 Z M49,22 C49,22.552 48.552,23 48,23 L42,23 C41.448,23 41,22.552 41,22 L41,16 C41,15.448 41.448,15 42,15 L48,15 C48.552,15 49,15.448 49,16 L49,22 Z M48,14 L42,14 C40.897,14 40,14.897 40,16 L40,22 C40,23.103 40.897,24 42,24 L48,24 C49.103,24 50,23.103 50,22 L50,16 C50,14.897 49.103,14 48,14 L48,14 Z M37,22 C37,22.552 36.552,23 36,23 L30,23 C29.448,23 29,22.552 29,22 L29,16 C29,15.448 29.448,15 30,15 L36,15 C36.552,15 37,15.448 37,16 L37,22 Z M36,14 L30,14 C28.897,14 28,14.897 28,16 L28,22 C28,23.103 28.897,24 30,24 L36,24 C37.103,24 38,23.103 38,22 L38,16 C38,14.897 37.103,14 36,14 L36,14 Z M25,22 C25,22.552 24.552,23 24,23 L18,23 C17.448,23 17,22.552 17,22 L17,16 C17,15.448 17.448,15 18,15 L24,15 C24.552,15 25,15.448 25,16 L25,22 Z M24,14 L18,14 C16.897,14 16,14.897 16,16 L16,22 C16,23.103 16.897,24 18,24 L24,24 C25.103,24 26,23.103 26,22 L26,16 C26,14.897 25.103,14 24,14 L24,14 Z M13,22 C13,22.552 12.552,23 12,23 L6,23 C5.448,23 5,22.552 5,22 L5,16 C5,15.448 5.448,15 6,15 L12,15 C12.552,15 13,15.448 13,16 L13,22 Z M12,14 L6,14 C4.897,14 4,14.897 4,16 L4,22 C4,23.103 4.897,24 6,24 L12,24 C13.103,24 14,23.103 14,22 L14,16 C14,14.897 13.103,14 12,14 L12,14 Z" sketch:type="MSShapeGroup"></path>
        </g>
    </g>
</svg>