<?xml version="1.0" encoding="UTF-8" standalone="no"?>
<svg width="42px" height="64px" viewBox="0 0 42 64" version="1.1" xmlns="http://www.w3.org/2000/svg" xmlns:xlink="http://www.w3.org/1999/xlink" xmlns:sketch="http://www.bohemiancoding.com/sketch/ns">
    <!-- Generator: Sketch 3.5.1 (25234) - http://www.bohemiancoding.com/sketch -->
    <title>Speaker</title>
    <desc>Created with Sketch.</desc>
    <defs></defs>
    <g id="Page-1" stroke="none" stroke-width="1" fill="none" fill-rule="evenodd" sketch:type="MSPage">
        <g id="Speaker" sketch:type="MSArtboardGroup" transform="translate(-11.000000, 0.000000)" fill="#000000">
            <path d="M46,6 C45.448,6 45,6.448 45,7 C45,7.552 45.448,8 46,8 C46.552,8 47,7.552 47,7 C47,6.448 46.552,6 46,6 L46,6 Z M46.5,59 L17.5,59 C17.224,59 17,59.224 17,59.5 C17,59.776 17.224,60 17.5,60 L46.5,60 C46.776,60 47,59.776 47,59.5 C47,59.224 46.776,59 46.5,59 L46.5,59 Z M32,46 C29.243,46 27,43.757 27,41 C27,38.243 29.243,36 32,36 C34.757,36 37,38.243 37,41 C37,43.757 34.757,46 32,46 L32,46 Z M32,35 C28.686,35 26,37.686 26,41 C26,44.314 28.686,47 32,47 C35.314,47 38,44.314 38,41 C38,37.686 35.314,35 32,35 L32,35 Z M32,13 C33.103,13 34,13.897 34,15 C34,16.103 33.103,17 32,17 C30.897,17 30,16.103 30,15 C30,13.897 30.897,13 32,13 L32,13 Z M32,18 C33.657,18 35,16.657 35,15 C35,13.343 33.657,12 32,12 C30.343,12 29,13.343 29,15 C29,16.657 30.343,18 32,18 L32,18 Z M32,54 C24.832,54 19,48.168 19,41 C19,33.832 24.832,28 32,28 C39.168,28 45,33.832 45,41 C45,48.168 39.168,54 32,54 L32,54 Z M32,26 C23.716,26 17,32.716 17,41 C17,49.284 23.716,56 32,56 C40.284,56 47,49.284 47,41 C47,32.716 40.284,26 32,26 L32,26 Z M32,8 C35.86,8 39,11.14 39,15 C39,18.86 35.86,22 32,22 C28.14,22 25,18.86 25,15 C25,11.14 28.14,8 32,8 L32,8 Z M32,24 C36.971,24 41,19.971 41,15 C41,10.029 36.971,6 32,6 C27.029,6 23,10.029 23,15 C23,19.971 27.029,24 32,24 L32,24 Z M51,59 C51,60.654 49.654,62 48,62 L16,62 C14.346,62 13,60.654 13,59 L13,5 C13,3.346 14.346,2 16,2 L48,2 C49.654,2 51,3.346 51,5 L51,59 Z M48,0 L16,0 C13.25,0 11,2.25 11,5 L11,59 C11,61.75 13.25,64 16,64 L48,64 C50.75,64 53,61.75 53,59 L53,5 C53,2.25 50.75,0 48,0 L48,0 Z" sketch:type="MSShapeGroup"></path>
        </g>
    </g>
</svg>