<?xml version="1.0" encoding="UTF-8" standalone="no"?>
<svg width="60px" height="64px" viewBox="0 0 60 64" version="1.1" xmlns="http://www.w3.org/2000/svg" xmlns:xlink="http://www.w3.org/1999/xlink" xmlns:sketch="http://www.bohemiancoding.com/sketch/ns">
    <!-- Generator: Sketch 3.5.1 (25234) - http://www.bohemiancoding.com/sketch -->
    <title>Sub Woofer</title>
    <desc>Created with Sketch.</desc>
    <defs></defs>
    <g id="Page-1" stroke="none" stroke-width="1" fill="none" fill-rule="evenodd" sketch:type="MSPage">
        <g id="Sub-Woofer" sketch:type="MSArtboardGroup" transform="translate(-2.000000, 0.000000)" fill="#000000">
            <path d="M35,56 L29,56 C28.448,56 28,56.448 28,57 C28,57.552 28.448,58 29,58 L35,58 C35.552,58 36,57.552 36,57 C36,56.448 35.552,56 35,56 L35,56 Z M57,56 C56.448,56 56,56.448 56,57 C56,57.552 56.448,58 57,58 C57.552,58 58,57.552 58,57 C58,56.448 57.552,56 57,56 L57,56 Z M7,56 C6.448,56 6,56.448 6,57 C6,57.552 6.448,58 7,58 C7.552,58 8,57.552 8,57 C8,56.448 7.552,56 7,56 L7,56 Z M57,4 C56.448,4 56,4.448 56,5 C56,5.552 56.448,6 57,6 C57.552,6 58,5.552 58,5 C58,4.448 57.552,4 57,4 L57,4 Z M7,6 C7.552,6 8,5.552 8,5 C8,4.448 7.552,4 7,4 C6.448,4 6,4.448 6,5 C6,5.552 6.448,6 7,6 L7,6 Z M32,38 C27.037,38 23,33.963 23,29 C23,24.037 27.037,20 32,20 C36.963,20 41,24.037 41,29 C41,33.963 36.963,38 32,38 L32,38 Z M32,19 C26.477,19 22,23.477 22,29 C22,34.523 26.477,39 32,39 C37.523,39 42,34.523 42,29 C42,23.477 37.523,19 32,19 L32,19 Z M32,53 C18.766,53 8,42.234 8,29 C8,15.766 18.766,5 32,5 C45.234,5 56,15.766 56,29 C56,42.234 45.234,53 32,53 L32,53 Z M32,4 C18.193,4 7,15.193 7,29 C7,42.807 18.193,54 32,54 C45.807,54 57,42.807 57,29 C57,15.193 45.807,4 32,4 L32,4 Z M32,49 C20.972,49 12,40.028 12,29 C12,17.972 20.972,9 32,9 C43.028,9 52,17.972 52,29 C52,40.028 43.028,49 32,49 L32,49 Z M32,7 C19.85,7 10,16.85 10,29 C10,41.15 19.85,51 32,51 C44.15,51 54,41.15 54,29 C54,16.85 44.15,7 32,7 L32,7 Z M60,57 C60,58.654 58.654,60 57,60 L7,60 C5.346,60 4,58.654 4,57 L4,5 C4,3.346 5.346,2 7,2 L57,2 C58.654,2 60,3.346 60,5 L60,57 Z M57,0 L7,0 C4.25,0 2,2.25 2,5 L2,57 C2,59.75 4.25,62 7,62 L10,62 L10,63 C10,63.552 10.448,64 11,64 L15,64 C15.552,64 16,63.552 16,63 L16,62 L48,62 L48,63 C48,63.552 48.448,64 49,64 L53,64 C53.552,64 54,63.552 54,63 L54,62 L57,62 C59.75,62 62,59.75 62,57 L62,5 C62,2.25 59.75,0 57,0 L57,0 Z" sketch:type="MSShapeGroup"></path>
        </g>
    </g>
</svg>