<?xml version="1.0" encoding="UTF-8" standalone="no"?>
<svg width="64px" height="48px" viewBox="0 0 64 48" version="1.1" xmlns="http://www.w3.org/2000/svg" xmlns:xlink="http://www.w3.org/1999/xlink" xmlns:sketch="http://www.bohemiancoding.com/sketch/ns">
    <!-- Generator: Sketch 3.5.1 (25234) - http://www.bohemiancoding.com/sketch -->
    <title>Turntable</title>
    <desc>Created with Sketch.</desc>
    <defs></defs>
    <g id="Page-1" stroke="none" stroke-width="1" fill="none" fill-rule="evenodd" sketch:type="MSPage">
        <g id="Turntable" sketch:type="MSArtboardGroup" transform="translate(0.000000, -8.000000)" fill="#000000">
            <path d="M26,37 C23.243,37 21,34.757 21,32 C21,29.243 23.243,27 26,27 C28.757,27 31,29.243 31,32 C31,34.757 28.757,37 26,37 L26,37 Z M26,26 C22.686,26 20,28.686 20,32 C20,35.314 22.686,38 26,38 C29.314,38 32,35.314 32,32 C32,28.686 29.314,26 26,26 L26,26 Z M55,22.899 L55,18 C55,17.45 54.55,17 54,17 C53.45,17 53,17.45 53,18 L53,22.899 C50.721,22.434 49,20.415 49,18 C49,15.243 51.243,13 54,13 C56.757,13 59,15.243 59,18 C59,20.415 57.279,22.434 55,22.899 L55,22.899 Z M54,12 C50.686,12 48,14.686 48,18 C48,20.972 50.163,23.433 53,23.91 L53,40.586 L51.293,42.293 C50.902,41.902 50.269,41.902 49.879,42.293 L45.636,46.536 C45.246,46.926 45.246,47.559 45.636,47.95 L47.05,49.364 C47.441,49.754 48.074,49.754 48.464,49.364 L52.707,45.121 C53.098,44.731 53.098,44.098 52.707,43.707 L54.708,41.706 C54.748,41.666 54.766,41.615 54.798,41.571 C54.842,41.509 54.893,41.453 54.922,41.383 C54.97,41.268 54.992,41.147 54.995,41.024 C54.995,41.016 55,41.009 55,41 L55,23.91 C57.837,23.433 60,20.972 60,18 C60,14.686 57.314,12 54,12 L54,12 Z M6,16 C7.105,16 8,15.105 8,14 C8,12.895 7.105,12 6,12 C4.895,12 4,12.895 4,14 C4,15.105 4.895,16 6,16 L6,16 Z M11,50 L5,50 C4.45,50 4,50.45 4,51 C4,51.55 4.45,52 5,52 L11,52 C11.55,52 12,51.55 12,51 C12,50.45 11.55,50 11,50 L11,50 Z M26,51 C15.523,51 7,42.477 7,32 C7,21.523 15.523,13 26,13 C36.477,13 45,21.523 45,32 C45,42.477 36.477,51 26,51 L26,51 Z M26,12 C14.954,12 6,20.954 6,32 C6,43.046 14.954,52 26,52 C37.046,52 46,43.046 46,32 C46,20.954 37.046,12 26,12 L26,12 Z M62,51 C62,52.654 60.654,54 59,54 L5,54 C3.346,54 2,52.654 2,51 L2,13 C2,11.346 3.346,10 5,10 L59,10 C60.654,10 62,11.346 62,13 L62,51 Z M59,8 L5,8 C2.25,8 0,10.25 0,13 L0,51 C0,53.75 2.25,56 5,56 L59,56 C61.75,56 64,53.75 64,51 L64,13 C64,10.25 61.75,8 59,8 L59,8 Z" sketch:type="MSShapeGroup"></path>
        </g>
    </g>
</svg>