<?xml version="1.0" encoding="UTF-8" standalone="no"?>
<svg width="64px" height="64px" viewBox="0 0 64 64" version="1.1" xmlns="http://www.w3.org/2000/svg" xmlns:xlink="http://www.w3.org/1999/xlink" xmlns:sketch="http://www.bohemiancoding.com/sketch/ns">
    <!-- Generator: Sketch 3.5.1 (25234) - http://www.bohemiancoding.com/sketch -->
    <title>Vinyl</title>
    <desc>Created with Sketch.</desc>
    <defs></defs>
    <g id="Page-1" stroke="none" stroke-width="1" fill="none" fill-rule="evenodd" sketch:type="MSPage">
        <g id="Vinyl" sketch:type="MSArtboardGroup" fill="#000000">
            <path d="M24.9893,54.4355 C17.6283,52.1385 11.8613,46.3725 9.5643,39.0105 C9.4823,38.7475 9.2063,38.5995 8.9373,38.6825 C8.6753,38.7655 8.5273,39.0455 8.6093,39.3095 C11.0053,46.9835 17.0163,52.9955 24.6903,55.3905 C24.7403,55.4065 24.7913,55.4135 24.8403,55.4135 C25.0523,55.4135 25.2503,55.2765 25.3173,55.0625 C25.3993,54.7985 25.2523,54.5185 24.9893,54.4355 M25.8853,51.5715 C19.4633,49.5675 14.4323,44.5375 12.4283,38.1155 C12.3463,37.8525 12.0683,37.7045 11.8013,37.7875 C11.5383,37.8705 11.3913,38.1505 11.4733,38.4145 C13.5763,45.1485 18.8513,50.4235 25.5863,52.5265 C25.6353,52.5415 25.6863,52.5485 25.7353,52.5485 C25.9483,52.5485 26.1453,52.4125 26.2133,52.1985 C26.2953,51.9345 26.1483,51.6545 25.8853,51.5715 M24.0933,57.2995 C15.7943,54.7085 9.2913,48.2065 6.7003,39.9065 C6.6173,39.6435 6.3433,39.4945 6.0733,39.5785 C5.8093,39.6615 5.6633,39.9415 5.7453,40.2055 C8.4343,48.8175 15.1823,55.5655 23.7953,58.2545 C23.8443,58.2705 23.8953,58.2775 23.9443,58.2775 C24.1573,58.2775 24.3543,58.1405 24.4223,57.9265 C24.5043,57.6635 24.3573,57.3825 24.0933,57.2995 M39.3093,8.6095 C39.0433,8.5265 38.7653,8.6755 38.6823,8.9375 C38.6003,9.2015 38.7483,9.4815 39.0103,9.5635 C46.3723,11.8615 52.1383,17.6275 54.4353,24.9885 C54.5033,25.2025 54.7003,25.3395 54.9133,25.3395 C54.9623,25.3395 55.0123,25.3325 55.0623,25.3165 C55.3253,25.2345 55.4723,24.9545 55.3903,24.6905 C52.9953,17.0165 46.9833,11.0045 39.3093,8.6095 M38.4153,11.4745 C38.1473,11.3895 37.8713,11.5395 37.7883,11.8025 C37.7063,12.0665 37.8533,12.3465 38.1163,12.4285 C44.5373,14.4335 49.5663,19.4625 51.5713,25.8835 C51.6383,26.0975 51.8363,26.2345 52.0493,26.2345 C52.0973,26.2345 52.1483,26.2275 52.1983,26.2115 C52.4623,26.1295 52.6083,25.8495 52.5263,25.5855 C50.4243,18.8515 45.1483,13.5765 38.4153,11.4745 M58.2553,23.7955 C55.5653,15.1825 48.8183,8.4345 40.2053,5.7455 C39.9373,5.6605 39.6613,5.8105 39.5783,6.0735 C39.4963,6.3375 39.6423,6.6175 39.9063,6.6995 C48.2073,9.2915 54.7093,15.7935 57.3003,24.0935 C57.3673,24.3075 57.5643,24.4445 57.7773,24.4445 C57.8263,24.4445 57.8773,24.4375 57.9273,24.4215 C58.1903,24.3395 58.3373,24.0595 58.2553,23.7955 M32.0003,32.9995 C31.4483,32.9995 31.0003,32.5515 31.0003,31.9995 C31.0003,31.4485 31.4483,30.9995 32.0003,30.9995 C32.5513,30.9995 33.0003,31.4485 33.0003,31.9995 C33.0003,32.5515 32.5513,32.9995 32.0003,32.9995 M32.0003,29.9995 C30.8953,29.9995 30.0003,30.8955 30.0003,31.9995 C30.0003,33.1045 30.8953,33.9995 32.0003,33.9995 C33.1043,33.9995 34.0003,33.1045 34.0003,31.9995 C34.0003,30.8955 33.1043,29.9995 32.0003,29.9995 M32.0003,40.9995 C27.0373,40.9995 23.0003,36.9625 23.0003,31.9995 C23.0003,27.0375 27.0373,22.9995 32.0003,22.9995 C36.9623,22.9995 41.0003,27.0375 41.0003,31.9995 C41.0003,36.9625 36.9623,40.9995 32.0003,40.9995 M32.0003,20.9995 C25.9253,20.9995 21.0003,25.9245 21.0003,31.9995 C21.0003,38.0755 25.9253,42.9995 32.0003,42.9995 C38.0753,42.9995 43.0003,38.0755 43.0003,31.9995 C43.0003,25.9245 38.0753,20.9995 32.0003,20.9995 M32.0003,61.9995 C15.4583,61.9995 2.0003,48.5425 2.0003,31.9995 C2.0003,15.4575 15.4583,1.9995 32.0003,1.9995 C48.5423,1.9995 62.0003,15.4575 62.0003,31.9995 C62.0003,48.5425 48.5423,61.9995 32.0003,61.9995 M32.0003,-0.0005 C14.3273,-0.0005 0.0003,14.3265 0.0003,31.9995 C0.0003,49.6735 14.3273,63.9995 32.0003,63.9995 C49.6733,63.9995 64.0003,49.6735 64.0003,31.9995 C64.0003,14.3265 49.6733,-0.0005 32.0003,-0.0005" sketch:type="MSShapeGroup"></path>
        </g>
    </g>
</svg>